
<!-- Generator: visioncortex VTracer 0.6.4 -->
<svg version="1.1" xmlns="http://www.w3.org/2000/svg" viewBox="0 0 612 434" preserveAspectRatio="xMidYMid meet">
<path d="M0 0 C201.96 0 403.92 0 612 0 C612 143.22 612 286.44 612 434 C410.04 434 208.08 434 0 434 C0 290.78 0 147.56 0 0 Z " fill="#DAD2D0" transform="translate(0,0)"/>
<path d="M0 0 C1.113 -0.024 1.113 -0.024 2.248 -0.049 C6.826 -0.053 9.666 0.453 13.438 3.312 C13.768 3.642 14.097 3.972 14.438 4.312 C13.837 10.912 13.837 10.912 11.438 13.312 C9.272 13.379 7.102 13.342 4.938 13.25 C-3.09 13.126 -9.472 14.623 -16.562 18.312 C-16.562 18.972 -16.562 19.632 -16.562 20.312 C-17.222 20.312 -17.882 20.312 -18.562 20.312 C-18.562 20.972 -18.562 21.632 -18.562 22.312 C-19.222 22.312 -19.882 22.312 -20.562 22.312 C-20.87 23.27 -20.87 23.27 -21.184 24.246 C-21.453 25.072 -21.722 25.899 -22 26.75 C-22.267 27.574 -22.534 28.397 -22.809 29.246 C-23.562 31.312 -23.562 31.312 -24.562 32.312 C-26.249 32.385 -27.938 32.396 -29.625 32.375 C-30.544 32.366 -31.463 32.357 -32.41 32.348 C-33.12 32.336 -33.831 32.324 -34.562 32.312 C-35.058 33.302 -35.058 33.302 -35.562 34.312 C-34.047 34.251 -34.047 34.251 -32.5 34.188 C-20.335 34.574 -8.876 41.373 1.438 47.312 C2.404 47.846 3.371 48.38 4.367 48.93 C5.05 49.386 5.734 49.842 6.438 50.312 C6.438 50.972 6.438 51.632 6.438 52.312 C8.087 52.972 9.738 53.632 11.438 54.312 C11.438 54.972 11.438 55.632 11.438 56.312 C12.021 56.574 12.605 56.836 13.207 57.105 C26.095 64.08 36.081 82.972 40.438 96.312 C41.697 99.361 43.004 102.385 44.316 105.41 C49.368 118.489 47.473 135.54 42.438 148.312 C41.795 149.658 41.138 150.997 40.438 152.312 C39.778 152.312 39.118 152.312 38.438 152.312 C38.19 153.158 37.942 154.004 37.688 154.875 C36.298 158.695 34.488 161.808 32.438 165.312 C31.231 165.254 30.024 165.196 28.781 165.137 C17.647 164.407 17.647 164.407 7.844 168.887 C4.333 172.446 2.068 175.556 0.438 180.312 C1.428 180.643 2.418 180.972 3.438 181.312 C3.664 180.611 3.891 179.91 4.125 179.188 C6.433 174.133 8.98 171.137 13.75 168.438 C20.79 166.29 25.351 166.823 31.773 170.047 C33.858 171.633 34.655 172.812 35.438 175.312 C33.182 182.82 26.506 190.427 21.438 196.312 C20.778 196.312 20.118 196.312 19.438 196.312 C19.19 196.931 18.942 197.55 18.688 198.188 C17.231 200.663 16.059 201.264 13.438 202.312 C13.438 202.972 13.438 203.632 13.438 204.312 C11.206 206.113 8.985 207.756 6.625 209.375 C5.922 209.859 5.22 210.344 4.496 210.843 C-3.708 216.325 -12.554 220.347 -21.562 224.312 C-21.709 229.218 -21.718 233.03 -19.812 237.625 C-19.488 238.446 -19.163 239.267 -18.828 240.113 C-16.943 243.389 -14.948 244.935 -11.301 245.93 C-5.132 246.585 -0.139 246.189 5.438 243.312 C10.638 238.921 14.492 233.421 18 227.625 C19.023 225.943 19.023 225.943 20.066 224.227 C20.439 223.611 20.812 222.995 21.196 222.36 C23.097 219.225 25.012 216.099 26.926 212.971 C29.098 209.42 31.268 205.866 33.438 202.312 C34.428 202.643 35.418 202.972 36.438 203.312 C13.418 244.148 13.418 244.148 1.812 248.75 C-1.393 249.284 -4.32 249.471 -7.562 249.312 C-7.562 249.972 -7.562 250.632 -7.562 251.312 C-6.903 251.312 -6.243 251.312 -5.562 251.312 C-5.562 251.972 -5.562 252.632 -5.562 253.312 C-10.082 252.796 -12.064 251.111 -15.562 248.312 C-18.844 246.536 -22.191 244.91 -25.562 243.312 C-25.226 242.689 -24.89 242.065 -24.543 241.422 C-23.305 238.759 -23.716 238.084 -24.562 235.312 C-25.827 227.842 -25.827 227.842 -24.562 225.312 C-25.427 225.529 -26.292 225.746 -27.184 225.969 C-53.112 231.701 -80.521 229.179 -103.5 215.375 C-108.754 211.968 -113.742 208.307 -118.562 204.312 C-119.523 203.557 -120.483 202.802 -121.473 202.023 C-124.805 199.237 -127.425 196.062 -130.062 192.625 C-130.542 192.003 -131.021 191.38 -131.515 190.739 C-147.948 169.129 -154.819 142.755 -151.221 115.75 C-150.348 110.823 -149.051 106.088 -147.562 101.312 C-147.262 100.313 -146.962 99.314 -146.652 98.285 C-141.518 82.792 -131.369 66.702 -118.562 56.312 C-117.903 56.312 -117.243 56.312 -116.562 56.312 C-116.562 55.653 -116.562 54.993 -116.562 54.312 C-114.912 53.653 -113.262 52.993 -111.562 52.312 C-111.562 51.653 -111.562 50.993 -111.562 50.312 C-94.595 40.429 -77.892 32.122 -57.754 32.215 C-56.513 32.218 -55.272 32.221 -53.994 32.225 C-52.717 32.233 -51.441 32.241 -50.125 32.25 C-48.169 32.257 -48.169 32.257 -46.174 32.264 C-42.97 32.275 -39.766 32.292 -36.562 32.312 C-36.589 30.905 -36.589 30.905 -36.615 29.468 C-36.492 22.096 -31.457 15.386 -26.586 10.133 C-18.796 3.125 -10.344 -0.045 0 0 Z " fill="#FDFDFD" transform="translate(356.5625,59.6875)"/>
<path d="M0 0 C7.809 6.701 13.97 14.416 15.652 24.812 C16.16 35.041 12.57 43.466 5.988 51.18 C1.522 55.809 -3.354 59.505 -8.824 62.867 C-9.901 63.537 -10.977 64.208 -12.086 64.898 C-16.05 67.138 -20.124 68.346 -24.512 69.492 C-25.308 69.704 -26.104 69.915 -26.924 70.134 C-50.912 76.381 -74.552 75.378 -96.824 63.867 C-108.113 57.124 -116.287 48.764 -119.824 35.867 C-120.919 27.65 -120.03 21.012 -115.824 13.867 C-115.226 12.836 -114.628 11.805 -114.012 10.742 C-102.068 -4.955 -84.454 -11.342 -65.652 -14.699 C-42.456 -17.327 -19.05 -14.407 0 0 Z " fill="#161C2A" transform="translate(335.82421875,135.1328125)"/>
<path d="M0 0 C4.198 0 8.396 -0.007 12.595 -0.021 C34.213 -0.09 55.788 0.007 77.383 1.095 C78.612 1.156 78.612 1.156 79.865 1.218 C92.067 1.84 104.115 2.974 116.145 5.185 C115.815 6.175 115.485 7.165 115.145 8.185 C108.071 10.285 100.918 10.755 93.582 11.248 C92.536 11.326 91.49 11.404 90.412 11.484 C86.658 11.75 82.902 11.973 79.145 12.185 C78.41 12.23 77.674 12.274 76.917 12.32 C56.158 13.538 35.357 13.373 14.571 13.371 C10.359 13.371 6.147 13.377 1.935 13.391 C-19.85 13.461 -41.596 13.355 -63.359 12.299 C-64.184 12.26 -65.01 12.221 -65.86 12.181 C-74.332 11.769 -82.768 11.177 -91.199 10.241 C-91.897 10.166 -92.594 10.092 -93.313 10.016 C-97.116 9.562 -100.375 8.793 -103.855 7.185 C-103.525 6.525 -103.195 5.865 -102.855 5.185 C-95.999 3.017 -88.546 2.658 -81.418 2.123 C-80.036 2.006 -80.036 2.006 -78.627 1.886 C-52.472 -0.162 -26.214 -0.003 0 0 Z " fill="#C2B6B6" transform="translate(312.855224609375,389.814697265625)"/>
<path d="M0 0 C3.417 3.269 4.259 5.388 4.562 10.125 C4.479 18.883 0.275 25.609 -4 33 C-4.369 33.644 -4.737 34.288 -5.117 34.952 C-7.656 39.357 -10.302 43.69 -13 48 C-13.394 48.633 -13.788 49.266 -14.194 49.917 C-26.11 68.995 -26.11 68.995 -35 72 C-41.461 73.479 -46.306 73.53 -52 70 C-57.26 63.603 -58.098 57.952 -58 50 C-56.961 49.492 -55.922 48.984 -54.852 48.461 C-44.556 43.395 -34.598 38.298 -25.594 31.102 C-24 30 -24 30 -22 30 C-22 29.34 -22 28.68 -22 28 C-20.35 26.646 -18.683 25.313 -17 24 C-16.67 23.34 -16.34 22.68 -16 22 C-15.34 22 -14.68 22 -14 22 C-13.773 21.484 -13.546 20.969 -13.312 20.438 C-11.142 16.406 -8.334 12.821 -5.633 9.133 C-3.491 6.18 -1.477 3.358 0 0 Z " fill="#DBD3D1" transform="translate(392,234)"/>
<path d="M0 0 C1.835 -0.007 1.835 -0.007 3.706 -0.014 C4.851 -0.012 5.996 -0.01 7.176 -0.008 C8.213 -0.007 9.249 -0.006 10.318 -0.004 C12.688 0.125 12.688 0.125 13.688 1.125 C13.774 2.687 13.795 4.252 13.785 5.816 C13.782 6.761 13.779 7.705 13.775 8.678 C13.763 10.168 13.763 10.168 13.75 11.688 C13.745 12.685 13.741 13.682 13.736 14.709 C13.725 17.181 13.708 19.653 13.688 22.125 C6.195 25.871 -5.053 24.455 -13.375 24.688 C-14.827 24.731 -16.28 24.774 -17.732 24.818 C-21.259 24.924 -24.786 25.026 -28.312 25.125 C-28.312 24.465 -28.312 23.805 -28.312 23.125 C-28.973 23.125 -29.632 23.125 -30.312 23.125 C-30.312 16.525 -30.312 9.925 -30.312 3.125 C-29.652 3.125 -28.993 3.125 -28.312 3.125 C-28.312 2.465 -28.312 1.805 -28.312 1.125 C-18.876 0.148 -9.48 0.015 0 0 Z " fill="#DBD3D2" transform="translate(340.3125,214.875)"/>
<path d="M0 0 C3.96 0 7.92 0 12 0 C12 4.29 12 8.58 12 13 C16.29 13 20.58 13 25 13 C25.098 21.496 25.098 21.496 25 24 C24 25 24 25 21.277 25.098 C20.175 25.086 19.073 25.074 17.938 25.062 C16.833 25.053 15.728 25.044 14.59 25.035 C13.735 25.024 12.881 25.012 12 25 C12.012 25.855 12.023 26.709 12.035 27.59 C12.044 28.695 12.053 29.799 12.062 30.938 C12.074 32.04 12.086 33.142 12.098 34.277 C12 37 12 37 11 38 C7.331 38.143 3.673 38.042 0 38 C-0.33 34.04 -0.66 30.08 -1 26 C-4.96 25.67 -8.92 25.34 -13 25 C-13 21.04 -13 17.08 -13 13 C-8.71 13 -4.42 13 0 13 C0 8.71 0 4.42 0 0 Z " fill="#7F8FEC" transform="translate(274,227)"/>
<path d="M0 0 C3.225 3.225 3.194 6.513 3.596 10.903 C4.466 20.329 6.358 28.922 9 38 C9.363 39.623 9.719 41.248 10.062 42.875 C10.372 43.906 10.681 44.938 11 46 C11.99 46.33 12.98 46.66 14 47 C14.913 48.536 15.818 50.079 16.651 51.66 C19.428 57.316 19.428 57.316 24.277 60.906 C26.558 61.029 26.558 61.029 28.824 60.922 C32.73 61.062 35.264 63.39 38 66 C41.184 69.697 41.533 73.111 41.344 77.844 C40.799 81.26 39.654 82.823 37 85 C32.806 86.266 30.509 86.155 26.312 84.875 C21.668 82.246 19.037 78.89 17 74 C17.144 72.721 17.289 71.442 17.438 70.125 C17.635 64.425 14.448 60.635 11.353 56.161 C8.614 52.145 7.066 48.975 6.387 44.199 C5.914 41.512 4.992 39.165 4 36.625 C-0.471 24.497 -0.225 12.762 0 0 Z " fill="#252A38" transform="translate(209,220)"/>
<path d="M0 0 C7.712 7.504 11.314 14.27 11.468 25.191 C11.458 26.015 11.448 26.839 11.438 27.688 C11.431 28.56 11.425 29.432 11.419 30.33 C11.233 38.114 9.579 44.645 7 52 C6.351 54.27 5.705 56.541 5.062 58.812 C3.568 63.735 1.624 67.831 -1.242 72.098 C-2.249 74.017 -2.249 74.017 -1.266 76.059 C-0.175 77.732 0.97 79.37 2.125 81 C4.991 86.091 4.947 91.341 4 97 C2.343 101.22 0.319 105.108 -2 109 C-2.99 108.67 -3.98 108.34 -5 108 C-4.562 105.022 -4.019 103.031 -2.438 100.438 C-0.294 95.311 -0.33 90.479 -1 85 C-3.296 80.054 -6.313 77.692 -11 75 C-16.254 73.249 -21.044 73.292 -26.125 75.438 C-30.936 78.052 -33.371 82.34 -36 87 C-37.32 86.67 -38.64 86.34 -40 86 C-38.252 79.783 -33.671 74.745 -28.352 71.27 C-23.982 69.614 -20.247 69.669 -15.625 69.812 C-14.794 69.826 -13.962 69.84 -13.105 69.854 C-11.07 69.889 -9.035 69.942 -7 70 C-5.02 66.04 -3.04 62.08 -1 58 C-0.34 58 0.32 58 1 58 C1.193 57.287 1.387 56.574 1.586 55.84 C1.846 54.882 2.107 53.924 2.375 52.938 C2.758 51.528 2.758 51.528 3.148 50.09 C3.733 47.968 4.382 45.864 5.082 43.777 C6.245 38.993 6.33 34.529 6.312 29.625 C6.329 28.73 6.345 27.836 6.361 26.914 C6.366 20.707 5.221 15.764 3 10 C2.427 8.149 1.862 6.296 1.312 4.438 C1.061 3.591 0.81 2.744 0.551 1.871 C0.369 1.254 0.187 0.636 0 0 Z " fill="#181E2C" transform="translate(396,154)"/>
<path d="M0 0 C7.712 7.504 11.314 14.27 11.468 25.191 C11.458 26.015 11.448 26.839 11.438 27.688 C11.428 28.996 11.428 28.996 11.419 30.33 C11.233 38.114 9.579 44.645 7 52 C6.351 54.27 5.705 56.541 5.062 58.812 C3.367 64.324 1.071 69.129 -2 74 C-2.66 74 -3.32 74 -4 74 C-3.979 73.051 -3.959 72.103 -3.938 71.125 C-3.774 68.093 -3.774 68.093 -5 66 C-4.223 64.055 -4.223 64.055 -3.062 61.875 C-2.682 61.151 -2.302 60.426 -1.91 59.68 C-1.46 58.848 -1.46 58.848 -1 58 C-0.34 58 0.32 58 1 58 C1.193 57.287 1.387 56.574 1.586 55.84 C1.846 54.882 2.107 53.924 2.375 52.938 C2.63 51.998 2.885 51.058 3.148 50.09 C3.733 47.968 4.382 45.864 5.082 43.777 C6.245 38.993 6.33 34.529 6.312 29.625 C6.329 28.73 6.345 27.836 6.361 26.914 C6.366 20.707 5.221 15.764 3 10 C2.427 8.149 1.862 6.296 1.312 4.438 C1.061 3.591 0.81 2.744 0.551 1.871 C0.278 0.945 0.278 0.945 0 0 Z " fill="#202634" transform="translate(396,154)"/>
<path d="M0 0 C0.99 0.33 1.98 0.66 3 1 C-20.02 41.835 -20.02 41.835 -31.625 46.438 C-34.831 46.972 -37.758 47.158 -41 47 C-41 47.66 -41 48.32 -41 49 C-40.34 49 -39.68 49 -39 49 C-39 49.66 -39 50.32 -39 51 C-43.519 50.483 -45.502 48.799 -49 46 C-52.281 44.223 -55.628 42.598 -59 41 C-58.664 40.376 -58.327 39.752 -57.98 39.109 C-56.743 36.446 -57.153 35.772 -58 33 C-58.389 30.339 -58.688 27.672 -59 25 C-58.01 25 -57.02 25 -56 25 C-55.769 25.88 -55.539 26.761 -55.301 27.668 C-53.123 36.634 -53.123 36.634 -47 43 C-40.31 44.831 -34.156 44.176 -28 41 C-22.8 36.609 -18.945 31.108 -15.438 25.312 C-14.756 24.191 -14.074 23.07 -13.371 21.914 C-12.998 21.298 -12.626 20.682 -12.242 20.048 C-10.341 16.913 -8.425 13.786 -6.512 10.659 C-4.339 7.107 -2.17 3.554 0 0 Z M-57 21 C-56.01 21.495 -56.01 21.495 -55 22 C-55.99 22.495 -55.99 22.495 -57 23 C-57 22.34 -57 21.68 -57 21 Z " fill="#F1EFEF" transform="translate(390,262)"/>
<path d="M0 0 C0 0.33 0 0.66 0 1 C-2.97 1 -5.94 1 -9 1 C-9.33 2.65 -9.66 4.3 -10 6 C-10.66 6 -11.32 6 -12 6 C-12 6.66 -12 7.32 -12 8 C-9.69 7.01 -7.38 6.02 -5 5 C-5 5.66 -5 6.32 -5 7 C-4.34 6.67 -3.68 6.34 -3 6 C-0.277 5.092 1.271 4.891 4.062 4.938 C7.102 4.986 9.178 4.941 12 4 C11.34 4.969 10.68 5.939 10 6.938 C7.909 9.53 7.909 9.53 8 11 C5.07 10.951 5.07 10.951 2.141 10.902 C0.024 10.922 0.024 10.922 -1.863 11.5 C-4.1 12.023 -6.035 12.114 -8.328 12.098 C-9.127 12.094 -9.927 12.091 -10.75 12.088 C-11.575 12.08 -12.4 12.071 -13.25 12.062 C-14.09 12.058 -14.931 12.053 -15.797 12.049 C-17.865 12.037 -19.932 12.019 -22 12 C-22.027 10.354 -22.046 8.708 -22.062 7.062 C-22.074 6.146 -22.086 5.229 -22.098 4.285 C-22 2 -22 2 -21 1 C-14.037 -0.024 -7.023 -0.137 0 0 Z " fill="#F4F3F3" transform="translate(336,219)"/>
<path d="M0 0 C3.225 3.225 3.194 6.513 3.596 10.903 C4.466 20.329 6.358 28.922 9 38 C9.363 39.623 9.719 41.248 10.062 42.875 C10.372 43.906 10.681 44.938 11 46 C11.99 46.33 12.98 46.66 14 47 C15.397 48.956 16.738 50.954 18 53 C17.67 53.66 17.34 54.32 17 55 C16.01 54.34 15.02 53.68 14 53 C13.01 53.99 12.02 54.98 11 56 C8.336 52.246 7.467 48.93 6.598 44.516 C5.946 41.772 5.018 39.254 4 36.625 C-0.471 24.497 -0.225 12.762 0 0 Z " fill="#252B39" transform="translate(209,220)"/>
<path d="M0 0 C2.7 1.8 4.542 3.084 6 6 C6.312 9.438 6.312 9.438 6 13 C4.312 15 4.312 15 2 16 C-1.539 16 -2.937 15.049 -5.75 12.875 C-8.438 9.44 -9 7.34 -9 3 C-6.937 -0.762 -3.961 -0.555 0 0 Z " fill="#F5F4F4" transform="translate(239,286)"/>
<path d="M0 0 C0 3.3 0 6.6 0 10 C-1.98 10.33 -3.96 10.66 -6 11 C-6 8 -6 8 -4 5 C-4.99 5.495 -4.99 5.495 -6 6 C-8.243 6.069 -10.468 5.998 -12.711 5.938 C-14.968 5.999 -16.83 6.409 -19 7 C-19.66 7 -20.32 7 -21 7 C-22.67 7.318 -24.337 7.65 -26 8 C-26 7.34 -26 6.68 -26 6 C-25.34 5.67 -24.68 5.34 -24 5 C-23.348 2.975 -23.348 2.975 -23 1 C-19.918 0.634 -16.834 0.284 -13.75 -0.062 C-12.877 -0.166 -12.005 -0.27 -11.105 -0.377 C-10.261 -0.47 -9.417 -0.564 -8.547 -0.66 C-7.772 -0.749 -6.997 -0.838 -6.198 -0.93 C-4 -1 -4 -1 0 0 Z " fill="#F6F5F5" transform="translate(350,219)"/>
<path d="M0 0 C3.107 3.01 4.329 5.242 4.5 9.5 C4.336 12.672 3.945 14.105 2.438 17 C-0.747 19.613 -2.91 20 -7 20 C-8.938 18.562 -8.938 18.562 -10 17 C-7.626 14.626 -6.225 14.579 -3 14 C-1.611 12.838 -1.611 12.838 -1.875 9.625 C-1.827 6.047 -1.827 6.047 -3 3 C-2.01 2.01 -1.02 1.02 0 0 Z M-1 3 C0 5 0 5 0 5 Z " fill="#1B212E" transform="translate(246,286)"/>
<path d="M0 0 C3.533 3.379 4.225 5.478 4.438 10.375 C4.429 17.626 1.648 22.876 -2 29 C-2.99 28.67 -3.98 28.34 -5 28 C-4.561 25.013 -3.972 22.95 -2.465 20.305 C-0.713 16.351 -0.73 13.551 -0.875 9.25 C-1.083 2.167 -1.083 2.167 0 0 Z " fill="#1D2330" transform="translate(396,234)"/>
<path d="M0 0 C2 2 2 2 2.082 3.848 C1.033 12.47 -1.442 19.613 -6 27 C-6.66 27 -7.32 27 -8 27 C-7.979 26.051 -7.959 25.102 -7.938 24.125 C-7.774 21.093 -7.774 21.093 -9 19 C-8.223 17.055 -8.223 17.055 -7.062 14.875 C-6.682 14.151 -6.302 13.426 -5.91 12.68 C-5.61 12.125 -5.309 11.571 -5 11 C-4.34 11 -3.68 11 -3 11 C-2.01 7.37 -1.02 3.74 0 0 Z " fill="#212634" transform="translate(400,201)"/>
<path d="M0 0 C0.99 0.495 0.99 0.495 2 1 C1.01 1.495 1.01 1.495 0 2 C0 1.34 0 0.68 0 0 Z M-1 3 C-0.34 3.33 0.32 3.66 1 4 C1.668 6.064 2.26 8.152 2.812 10.25 C4.399 15.616 5.421 18.761 10 22 C12.665 23.319 12.665 23.319 15 24 C15 24.99 15 25.98 15 27 C14.34 27.33 13.68 27.66 13 28 C12.447 27.546 11.894 27.092 11.324 26.625 C8.149 24.405 4.78 23.34 1.145 22.062 C0.083 21.537 0.083 21.537 -1 21 C-1.33 20.01 -1.66 19.02 -2 18 C-1.34 17.34 -0.68 16.68 0 16 C-0.314 14.235 -0.314 14.235 -1 12 C-1.442 9.331 -1.735 6.697 -2 4 C-1.67 3.67 -1.34 3.34 -1 3 Z " fill="#F9F8F8" transform="translate(333,283)"/>
<path d="M0 0 C6.178 6.011 10.483 11.484 11.188 20.363 C11.188 22.243 11.102 24.123 11 26 C10.67 26 10.34 26 10 26 C10 24.02 10 22.04 10 20 C9.34 20 8.68 20 8 20 C8 23.96 8 27.92 8 32 C7.67 32 7.34 32 7 32 C6.914 30.84 6.827 29.68 6.738 28.484 C5.984 19.716 4.887 12.228 1.023 4.188 C0 2 0 2 0 0 Z " fill="#303644" transform="translate(396,154)"/>
<path d="M0 0 C0.99 0.33 1.98 0.66 3 1 C2.01 1.33 1.02 1.66 0 2 C0 1.34 0 0.68 0 0 Z M3 2 C3 2.66 3 3.32 3 4 C1.804 4.474 0.608 4.949 -0.625 5.438 C-5.838 7.988 -8.217 12.066 -11 17 C-12.32 16.67 -13.64 16.34 -15 16 C-13.386 10.262 -9.015 4.851 -3.945 1.738 C-1.344 0.751 0.367 1.269 3 2 Z " fill="#282D3B" transform="translate(371,224)"/>
<path d="M0 0 C5.398 5.398 4.062 16.616 4.062 23.812 C4.047 25.208 4.028 26.604 4 28 C1.047 25.561 0.566 23.73 0 20 C-0.076 18.38 -0.108 16.758 -0.098 15.137 C-0.094 14.25 -0.091 13.364 -0.088 12.451 C-0.08 11.539 -0.071 10.627 -0.062 9.688 C-0.058 8.756 -0.053 7.825 -0.049 6.865 C-0.037 4.577 -0.021 2.288 0 0 Z " fill="#141A27" transform="translate(209,220)"/>
<path d="M0 0 C0.33 0.66 0.66 1.32 1 2 C0.34 1.67 -0.32 1.34 -1 1 C-0.67 0.67 -0.34 0.34 0 0 Z M-7 7 C-6.01 7.66 -5.02 8.32 -4 9 C-8.844 11.37 -12.791 12.39 -18.18 12.691 C-18.78 12.793 -19.381 12.895 -20 13 C-20.33 13.66 -20.66 14.32 -21 15 C-21.99 14.01 -22.98 13.02 -24 12 C-22.94 11.723 -21.881 11.446 -20.789 11.16 C-19.401 10.794 -18.013 10.428 -16.625 10.062 C-15.926 9.88 -15.228 9.698 -14.508 9.51 C-10.66 8.515 -10.66 8.515 -7 7 Z M-25 14 C-23 15 -23 15 -23 15 Z M-23 15 C-21 16 -21 16 -21 16 Z M-20 15 C-19.34 15 -18.68 15 -18 15 C-18.33 15.66 -18.66 16.32 -19 17 C-19.33 16.34 -19.66 15.68 -20 15 Z " fill="#EFECEC" transform="translate(369,296)"/>
<path d="M0 0 C10.153 -0.63 10.153 -0.63 13.688 2 C14.121 2.66 14.554 3.32 15 4 C14.67 4.99 14.34 5.98 14 7 C12.762 6.536 12.762 6.536 11.5 6.062 C7.609 4.881 4.038 4.418 0 4 C0 2.68 0 1.36 0 0 Z " fill="#141926" transform="translate(231,282)"/>
<path d="M0 0 C0.99 0 1.98 0 3 0 C2.67 0.99 2.34 1.98 2 3 C1.34 3 0.68 3 0 3 C0 3.66 0 4.32 0 5 C2.31 4.01 4.62 3.02 7 2 C7 2.66 7 3.32 7 4 C7.99 4.33 8.98 4.66 10 5 C8.271 5.17 6.542 5.336 4.812 5.5 C3.85 5.593 2.887 5.686 1.895 5.781 C-0.752 5.981 -3.348 6.039 -6 6 C-6 5.34 -6 4.68 -6 4 C-4.68 4 -3.36 4 -2 4 C-1.34 2.68 -0.68 1.36 0 0 Z M22 1 C22.66 1.33 23.32 1.66 24 2 C21.545 4.455 20.394 4.415 17 4.75 C15.67 4.897 15.67 4.897 14.312 5.047 C12 5 12 5 10 3 C13.178 1.411 16.494 2 20 2 C20.66 1.67 21.32 1.34 22 1 Z " fill="#444957" transform="translate(324,222)"/>
<path d="M0 0 C3.842 2.479 3.842 2.479 4.625 5.062 C4.749 5.702 4.873 6.341 5 7 C5.66 7.66 6.32 8.32 7 9 C6.34 10.98 5.68 12.96 5 15 C3.984 13.679 2.989 12.342 2 11 C1.237 10.031 0.474 9.061 -0.312 8.062 C-2 5 -2 5 -1.25 2.125 C-0.838 1.424 -0.425 0.723 0 0 Z " fill="#131925" transform="translate(223,272)"/>
<path d="M0 0 C2.395 0.319 3.809 0.857 5.75 2.312 C7 4 7 4 7 8 C1.375 8.25 1.375 8.25 -2 6 C-1.125 1.125 -1.125 1.125 0 0 Z " fill="#2C323F" transform="translate(324,294)"/>
<path d="M0 0 C3.487 2.79 6.502 5.252 9 9 C8.67 9.66 8.34 10.32 8 11 C7.01 10.34 6.02 9.68 5 9 C4.01 9.99 3.02 10.98 2 12 C-0.693 8.185 -1.424 5.665 -1 1 C-0.67 0.67 -0.34 0.34 0 0 Z " fill="#242A38" transform="translate(218,264)"/>
<path d="M0 0 C2.31 0.33 4.62 0.66 7 1 C7.382 2.656 7.714 4.325 8 6 C7 7 7 7 4.562 7.25 C3.717 7.168 2.871 7.085 2 7 C0 4 0 4 0 0 Z " fill="#181D2A" transform="translate(351,312)"/>
<path d="M0 0 C0.99 0.495 0.99 0.495 2 1 C1.01 1.495 1.01 1.495 0 2 C0 1.34 0 0.68 0 0 Z M-1 3 C-0.34 3.33 0.32 3.66 1 4 C1.594 6.649 1.742 9.292 2 12 C1.01 12 0.02 12 -1 12 C-1.879 5.848 -1.879 5.848 -2 4 C-1.67 3.67 -1.34 3.34 -1 3 Z M0 13 C2 14 2 14 2 14 Z M6 20 C6.66 20.66 7.32 21.32 8 22 C7.34 22 6.68 22 6 22 C6 21.34 6 20.68 6 20 Z M8 22 C10 23 10 23 10 23 Z M10 23 C14 24 14 24 14 24 Z " fill="#EFECEC" transform="translate(333,283)"/>
<path d="M0 0 C0.994 0.009 1.988 0.018 3.012 0.027 C4.151 0.045 4.151 0.045 5.312 0.062 C4.983 1.382 4.652 2.702 4.312 4.062 C0.312 4.062 -3.688 4.062 -7.688 4.062 C-8.017 3.072 -8.348 2.083 -8.688 1.062 C-5.538 0.013 -3.299 -0.039 0 0 Z M-10.688 4.062 C-7.688 5.062 -7.688 5.062 -7.688 5.062 Z " fill="#EFEEEE" transform="translate(339.6875,225.9375)"/>
<path d="M0 0 C1.207 0.031 1.207 0.031 2.438 0.062 C2.767 2.042 3.098 4.023 3.438 6.062 C-1.312 7.188 -1.312 7.188 -3.562 6.062 C-3.605 4.396 -3.603 2.729 -3.562 1.062 C-2.562 0.062 -2.562 0.062 0 0 Z " fill="#5470C4" transform="translate(257.5625,161.9375)"/>
<path d="M0 0 C1.207 0.031 1.207 0.031 2.438 0.062 C2.767 2.042 3.098 4.023 3.438 6.062 C-1.312 7.188 -1.312 7.188 -3.562 6.062 C-3.605 4.396 -3.603 2.729 -3.562 1.062 C-2.562 0.062 -2.562 0.062 0 0 Z " fill="#5472CD" transform="translate(324.5625,159.9375)"/>
<path d="M0 0 C0.66 0.33 1.32 0.66 2 1 C0.731 4.914 -0.512 6.791 -4 9 C-3.469 5.179 -2.503 2.938 0 0 Z M-7 11 C-6.01 11.495 -6.01 11.495 -5 12 C-5.99 12.495 -5.99 12.495 -7 13 C-7 12.34 -7 11.68 -7 11 Z M-8 13 C-7.67 13.66 -7.34 14.32 -7 15 C-7.66 14.67 -8.32 14.34 -9 14 C-8.67 13.67 -8.34 13.34 -8 13 Z M-11 15 C-10.34 15.33 -9.68 15.66 -9 16 C-9.99 16 -10.98 16 -12 16 C-11.67 15.67 -11.34 15.34 -11 15 Z " fill="#F2F0F0" transform="translate(375,287)"/>
<path d="M0 0 C4 2 4 2 5 4 C5.134 6.672 5.043 9.323 5 12 C4.67 12 4.34 12 4 12 C4 10.02 4 8.04 4 6 C3.34 6 2.68 6 2 6 C2 9.96 2 13.92 2 18 C1.67 18 1.34 18 1 18 C0.67 12.06 0.34 6.12 0 0 Z " fill="#454A57" transform="translate(402,168)"/>
<path d="M0 0 C0.598 0.784 1.196 1.567 1.812 2.375 C3.911 5.146 3.911 5.146 7 7 C7 8.32 7 9.64 7 11 C0.818 8.828 0.818 8.828 -1 6 C-0.688 2.812 -0.688 2.812 0 0 Z " fill="#303543" transform="translate(230,294)"/>
<path d="M0 0 C1.98 0 3.96 0 6 0 C6.382 1.656 6.714 3.325 7 5 C6 6 6 6 3.438 6.062 C2.231 6.032 2.231 6.032 1 6 C0.67 4.02 0.34 2.04 0 0 Z " fill="#5271CC" transform="translate(299,160)"/>
<path d="M0 0 C2.062 2.312 2.062 2.312 4 5 C2.867 8.399 1.875 9.053 -1 11 C-2.674 5.627 -2.674 5.627 -3 3 C-1.625 1 -1.625 1 0 0 Z M-1 3 C0 5 0 5 0 5 Z " fill="#353B49" transform="translate(246,286)"/>
<path d="M0 0 C2.523 1.974 2.993 2.967 3.688 6.188 C3.791 7.116 3.894 8.044 4 9 C3.01 9.495 3.01 9.495 2 10 C1.342 13.029 1.342 13.029 1 16 C0.67 16 0.34 16 0 16 C-0.194 13.709 -0.38 11.417 -0.562 9.125 C-0.719 7.211 -0.719 7.211 -0.879 5.258 C-1 2 -1 2 0 0 Z " fill="#1B202E" transform="translate(396,234)"/>
<path d="M0 0 C0 1.65 0 3.3 0 5 C-1.656 5.382 -3.325 5.714 -5 6 C-6 5 -6 5 -6.062 2.438 C-6.042 1.633 -6.021 0.829 -6 0 C-3.509 -1.245 -2.589 -0.777 0 0 Z " fill="#5576D7" transform="translate(254,155)"/>
<path d="M0 0 C0.369 6.523 0.369 6.523 -1.5 8.938 C-1.995 9.288 -2.49 9.639 -3 10 C-3 8.68 -3 7.36 -3 6 C-4.65 7.32 -6.3 8.64 -8 10 C-8.33 9.34 -8.66 8.68 -9 8 C-7.667 6.667 -6.333 5.333 -5 4 C-4.278 3.257 -3.556 2.515 -2.812 1.75 C-1 0 -1 0 0 0 Z " fill="#262C3B" transform="translate(250,293)"/>
<path d="M0 0 C0.99 0 1.98 0 3 0 C2.34 3.3 1.68 6.6 1 10 C0.01 10 -0.98 10 -2 10 C-1.34 6.7 -0.68 3.4 0 0 Z M-1 10 C-0.67 11.32 -0.34 12.64 0 14 C-0.99 14.495 -0.99 14.495 -2 15 C-1.67 13.35 -1.34 11.7 -1 10 Z " fill="#1B202E" transform="translate(403,192)"/>
<path d="M0 0 C2.125 0.375 2.125 0.375 4 1 C4 2.98 4 4.96 4 7 C2.35 7 0.7 7 -1 7 C-1.625 4.625 -1.625 4.625 -2 2 C-1.34 1.34 -0.68 0.68 0 0 Z " fill="#5475D6" transform="translate(234,161)"/>
<path d="M0 0 C1.32 0 2.64 0 4 0 C4.33 1.98 4.66 3.96 5 6 C3.344 6.382 1.675 6.714 0 7 C-1 6 -1 6 -1.125 3.5 C-1 1 -1 1 0 0 Z " fill="#5575D4" transform="translate(240,154)"/>
<path d="M0 0 C2.125 0.375 2.125 0.375 4 1 C4 2.65 4 4.3 4 6 C2.35 6.33 0.7 6.66 -1 7 C-1.625 4.625 -1.625 4.625 -2 2 C-1.34 1.34 -0.68 0.68 0 0 Z " fill="#5376DD" transform="translate(308,152)"/>
<path d="M0 0 C1.32 0.66 2.64 1.32 4 2 C3.67 3.65 3.34 5.3 3 7 C1.35 6.67 -0.3 6.34 -2 6 C-1.125 1.125 -1.125 1.125 0 0 Z " fill="#5277E2" transform="translate(317,152)"/>
<path d="M0 0 C2.97 0 5.94 0 9 0 C9.33 0.99 9.66 1.98 10 3 C6.7 3 3.4 3 0 3 C0 2.01 0 1.02 0 0 Z M-3 2 C-1 3 -1 3 -1 3 Z " fill="#121724" transform="translate(374,224)"/>
<path d="M0 0 C1.98 0.99 1.98 0.99 4 2 C4 5.3 4 8.6 4 12 C0.839 8.839 0.612 8.444 0.312 4.312 C0.247 3.504 0.181 2.696 0.113 1.863 C0.076 1.248 0.039 0.634 0 0 Z " fill="#222836" transform="translate(209,236)"/>
<path d="M0 0 C1.32 0.99 2.64 1.98 4 3 C3.01 4.65 2.02 6.3 1 8 C-0.32 7.67 -1.64 7.34 -3 7 C-1.125 2.25 -1.125 2.25 0 0 Z " fill="#2B303F" transform="translate(359,233)"/>
<path d="M0 0 C0.66 0.66 1.32 1.32 2 2 C1.977 4.164 1.977 4.164 1.625 6.625 C1.514 7.442 1.403 8.26 1.289 9.102 C1.194 9.728 1.098 10.355 1 11 C-0.32 11 -1.64 11 -3 11 C-2.01 7.37 -1.02 3.74 0 0 Z M-1 8 C0 10 0 10 0 10 Z " fill="#2C3241" transform="translate(400,201)"/>
<path d="M0 0 C0.99 0.66 1.98 1.32 3 2 C2.01 2.33 1.02 2.66 0 3 C-0.66 2.34 -1.32 1.68 -2 1 C-1.34 0.67 -0.68 0.34 0 0 Z M1 3 C2.32 3.66 3.64 4.32 5 5 C5 5.66 5 6.32 5 7 C6.32 7.66 7.64 8.32 9 9 C7 10 7 10 4.5 9.312 C1.703 7.844 1.066 6.907 0 4 C0.33 3.67 0.66 3.34 1 3 Z " fill="#1D222D" transform="translate(239,192)"/>
<path d="M0 0 C0.99 0.33 1.98 0.66 3 1 C-0.75 6.875 -0.75 6.875 -3 8 C-1.125 2.25 -1.125 2.25 0 0 Z " fill="#F5F3F3" transform="translate(390,262)"/>
<path d="M0 0 C0.99 0 1.98 0 3 0 C3.33 0.66 3.66 1.32 4 2 C2.562 4.625 2.562 4.625 1 7 C0.01 6.67 -0.98 6.34 -2 6 C-1.125 1.125 -1.125 1.125 0 0 Z " fill="#2C3242" transform="translate(393,256)"/>
<path d="M0 0 C0.33 0 0.66 0 1 0 C1.33 2.97 1.66 5.94 2 9 C0.515 9.99 0.515 9.99 -1 11 C-2.231 4.6 -2.231 4.6 -1.062 1.562 C-0.712 1.047 -0.361 0.531 0 0 Z " fill="#303544" transform="translate(213,243)"/>
<path d="M0 0 C0.99 0.495 0.99 0.495 2 1 C1.01 1.495 1.01 1.495 0 2 C0 1.34 0 0.68 0 0 Z M-1 3 C-0.34 3.33 0.32 3.66 1 4 C1 6.64 1 9.28 1 12 C0.34 12 -0.32 12 -1 12 C-1.879 5.848 -1.879 5.848 -2 4 C-1.67 3.67 -1.34 3.34 -1 3 Z " fill="#F2F0F0" transform="translate(333,283)"/>
<path d="M0 0 C0.66 0 1.32 0 2 0 C3 1 4 2 5 3 C5.99 3.33 6.98 3.66 8 4 C7.34 5.32 6.68 6.64 6 8 C1.125 3.375 1.125 3.375 0 0 Z " fill="#1E232F" transform="translate(389,229)"/>
<path d="M0 0 C0.99 0.66 1.98 1.32 3 2 C2.34 3.98 1.68 5.96 1 8 C0.01 6.68 -0.98 5.36 -2 4 C-1.34 2.68 -0.68 1.36 0 0 Z " fill="#1B212F" transform="translate(227,279)"/>
<path d="M0 0 C0.66 0 1.32 0 2 0 C2.33 1.98 2.66 3.96 3 6 C1.515 6.99 1.515 6.99 0 8 C-0.381 5.674 -0.713 3.339 -1 1 C-0.67 0.67 -0.34 0.34 0 0 Z " fill="#282E3C" transform="translate(214,252)"/>
<path d="M0 0 C2.398 2.398 2.343 3.333 2.625 6.625 C2.7 7.442 2.775 8.26 2.852 9.102 C2.901 9.728 2.95 10.355 3 11 C2.01 10.67 1.02 10.34 0 10 C0 6.7 0 3.4 0 0 Z " fill="#2A2F3C" transform="translate(209,220)"/>
<path d="M0 0 C0.99 0.66 1.98 1.32 3 2 C2.34 2 1.68 2 1 2 C0.67 2.66 0.34 3.32 0 4 C-0.99 3.01 -1.98 2.02 -3 1 C-2.01 0.67 -1.02 0.34 0 0 Z M-4 3 C-2 4 -2 4 -2 4 Z M-2 4 C0 5 0 5 0 5 Z M1 4 C1.66 4 2.32 4 3 4 C2.67 4.66 2.34 5.32 2 6 C1.67 5.34 1.34 4.68 1 4 Z " fill="#EFECEC" transform="translate(348,307)"/>
<path d="M0 0 C-2.799 2.799 -5.131 2.724 -9 3 C-9.66 2.34 -10.32 1.68 -11 1 C-7.326 -0.176 -3.831 -0.074 0 0 Z " fill="#F5F4F4" transform="translate(360,306)"/>
<path d="M0 0 C1.32 0.66 2.64 1.32 4 2 C2.68 3.32 1.36 4.64 0 6 C-0.99 5.67 -1.98 5.34 -3 5 C-1.125 1.125 -1.125 1.125 0 0 Z " fill="#1F2432" transform="translate(363,229)"/>
<path d="M0 0 C1.562 1.812 1.562 1.812 3 4 C2.67 4.99 2.34 5.98 2 7 C1.34 6.34 0.68 5.68 0 5 C-1.485 5.99 -1.485 5.99 -3 7 C-2.387 4.038 -1.746 2.619 0 0 Z " fill="#101621" transform="translate(246,158)"/>
<path d="M0 0 C1.65 0.33 3.3 0.66 5 1 C4.67 2.32 4.34 3.64 4 5 C1.03 4.505 1.03 4.505 -2 4 C-1.34 2.68 -0.68 1.36 0 0 Z " fill="#1B212F" transform="translate(323,129)"/>
<path d="M0 0 C2.31 0 4.62 0 7 0 C7 0.66 7 1.32 7 2 C6.34 2 5.68 2 5 2 C4.67 2.99 4.34 3.98 4 5 C2.35 4.67 0.7 4.34 -1 4 C-0.67 2.68 -0.34 1.36 0 0 Z " fill="#2E3442" transform="translate(383,224)"/>
<path d="M0 0 C0.66 0.33 1.32 0.66 2 1 C2 2.65 2 4.3 2 6 C1.01 6.495 1.01 6.495 0 7 C-0.66 5.35 -1.32 3.7 -2 2 C-1.34 1.34 -0.68 0.68 0 0 Z " fill="#151B28" transform="translate(398,211)"/>
<path d="M0 0 C2.31 0.33 4.62 0.66 7 1 C5.02 1.99 5.02 1.99 3 3 C3 2.34 3 1.68 3 1 C2.01 0.67 1.02 0.34 0 0 Z M7 2 C7.33 3.32 7.66 4.64 8 6 C7.01 5.67 6.02 5.34 5 5 C6 3 6 3 7 2 Z " fill="#323746" transform="translate(351,312)"/>
<path d="M0 0 C2.64 0.33 5.28 0.66 8 1 C6 3 6 3 2.375 3.125 C1.261 3.084 0.147 3.043 -1 3 C-0.67 2.01 -0.34 1.02 0 0 Z " fill="#DFD9D9" transform="translate(322,91)"/>
<path d="M0 0 C0.66 0.33 1.32 0.66 2 1 C1.67 2.32 1.34 3.64 1 5 C0.34 4.67 -0.32 4.34 -1 4 C-0.67 2.68 -0.34 1.36 0 0 Z M3 5 C3.99 5 4.98 5 6 5 C6 5.66 6 6.32 6 7 C5.01 6.67 4.02 6.34 3 6 C3 5.67 3 5.34 3 5 Z M6 7 C8 8 8 8 8 8 Z " fill="#EFECEC" transform="translate(332,299)"/>
<path d="M0 0 C0.33 1.32 0.66 2.64 1 4 C0.01 4.495 0.01 4.495 -1 5 C-1.658 8.029 -1.658 8.029 -2 11 C-2.33 11 -2.66 11 -3 11 C-3.081 9.543 -3.139 8.084 -3.188 6.625 C-3.222 5.813 -3.257 5.001 -3.293 4.164 C-3.196 3.45 -3.1 2.736 -3 2 C-2.01 1.34 -1.02 0.68 0 0 Z " fill="#444958" transform="translate(399,239)"/>
<path d="M0 0 C0.66 0.33 1.32 0.66 2 1 C1.67 3.31 1.34 5.62 1 8 C-0.65 7.67 -2.3 7.34 -4 7 C-3.01 6.34 -2.02 5.68 -1 5 C-0.27 2.437 -0.27 2.437 0 0 Z " fill="#323747" transform="translate(305,153)"/>
<path d="M0 0 C0.66 0 1.32 0 2 0 C3.068 1.965 4.066 3.969 5 6 C4.67 6.66 4.34 7.32 4 8 C0 3.375 0 3.375 0 0 Z " fill="#222836" transform="translate(344,146)"/>
<path d="M0 0 C2.97 0.495 2.97 0.495 6 1 C3.64 3.36 2.221 3.491 -1 4 C-0.67 2.68 -0.34 1.36 0 0 Z " fill="#252B3A" transform="translate(365,227)"/>
<path d="M0 0 C0.99 0.33 1.98 0.66 3 1 C2.67 1.99 2.34 2.98 2 4 C1.34 3.67 0.68 3.34 0 3 C0 2.01 0 1.02 0 0 Z M-1 4 C1 5 1 5 1 5 Z " fill="#282E3C" transform="translate(240,282)"/>
<path d="M0 0 C0.99 0 1.98 0 3 0 C3 1.65 3 3.3 3 5 C2.01 5 1.02 5 0 5 C0 3.35 0 1.7 0 0 Z " fill="#131925" transform="translate(397,243)"/>
<path d="M0 0 C0.66 0.33 1.32 0.66 2 1 C1.67 2.65 1.34 4.3 1 6 C0.01 6 -0.98 6 -2 6 C-1.34 4.02 -0.68 2.04 0 0 Z " fill="#3C414E" transform="translate(395,212)"/>
<path d="M0 0 C0.66 0.33 1.32 0.66 2 1 C1.34 2.32 0.68 3.64 0 5 C-0.66 4.67 -1.32 4.34 -2 4 C-2 3.01 -2 2.02 -2 1 C-1.34 0.67 -0.68 0.34 0 0 Z " fill="#444A5C" transform="translate(314,153)"/>
<path d="M0 0 C1.32 1.32 2.64 2.64 4 4 C2.35 3.67 0.7 3.34 -1 3 C-0.67 2.01 -0.34 1.02 0 0 Z " fill="#191E2C" transform="translate(237,301)"/>
<path d="M0 0 C0.33 0.66 0.66 1.32 1 2 C0.67 2.66 0.34 3.32 0 4 C-0.99 3.67 -1.98 3.34 -3 3 C-2.01 2.01 -1.02 1.02 0 0 Z " fill="#101521" transform="translate(249,293)"/>
<path d="M0 0 C1.32 0.99 2.64 1.98 4 3 C2.35 3.33 0.7 3.66 -1 4 C-0.67 2.68 -0.34 1.36 0 0 Z " fill="#2D3341" transform="translate(359,233)"/>
<path d="M0 0 C0.66 0.66 1.32 1.32 2 2 C1.01 2.99 0.02 3.98 -1 5 C-1.33 4.01 -1.66 3.02 -2 2 C-1.34 1.34 -0.68 0.68 0 0 Z " fill="#232938" transform="translate(395,232)"/>
<path d="M0 0 C0.99 0.66 1.98 1.32 3 2 C1.35 2.33 -0.3 2.66 -2 3 C-1.34 2.01 -0.68 1.02 0 0 Z " fill="#FDFCFC" transform="translate(330,227)"/>
<path d="M0 0 C0.66 0.33 1.32 0.66 2 1 C1.67 1.99 1.34 2.98 1 4 C0.34 3.01 -0.32 2.02 -1 1 C-0.67 0.67 -0.34 0.34 0 0 Z " fill="#1A202D" transform="translate(233,299)"/>
<path d="M0 0 C0.66 0.33 1.32 0.66 2 1 C1.67 2.32 1.34 3.64 1 5 C0.34 3.68 -0.32 2.36 -1 1 C-0.67 0.67 -0.34 0.34 0 0 Z " fill="#0F1520" transform="translate(401,162)"/>
<path d="M0 0 C0.66 0.66 1.32 1.32 2 2 C1.01 2 0.02 2 -1 2 C-0.67 1.34 -0.34 0.68 0 0 Z " fill="#171D2B" transform="translate(393,230)"/>
</svg>