<svg width="94" height="20" viewBox="0 0 94 20" fill="none" xmlns="http://www.w3.org/2000/svg">
<path d="M4.53125 4.42188C5.05208 4.45312 5.48958 4.47917 5.84375 4.5C6.20833 4.51042 6.51042 4.52083 6.75 4.53125C7.02083 4.54167 7.25 4.54167 7.4375 4.53125C7.625 4.52083 7.88021 4.49479 8.20312 4.45312C8.47396 4.42188 8.83333 4.375 9.28125 4.3125C9.73958 4.23958 10.3073 4.14583 10.9844 4.03125C10.7448 4.27083 10.5573 4.48958 10.4219 4.6875C10.2969 4.875 10.1979 5.03646 10.125 5.17188C10.0417 5.33854 9.98438 5.47917 9.95312 5.59375C9.93229 5.69792 9.95312 5.95833 10.0156 6.375C10.0781 6.79167 10.1667 7.28646 10.2812 7.85938C10.3958 8.42188 10.5208 9.02604 10.6562 9.67188C10.7917 10.3073 10.9271 10.9062 11.0625 11.4688C11.1979 12.0208 11.3177 12.4948 11.4219 12.8906C11.5365 13.276 11.6198 13.5052 11.6719 13.5781C11.8281 13.7969 11.9271 13.9427 11.9688 14.0156C12.0104 14.0781 12.0833 14.1354 12.1875 14.1875C12.2292 14.2083 12.2969 14.2396 12.3906 14.2812C12.474 14.3229 12.5833 14.375 12.7188 14.4375C12.8646 14.5 13.0469 14.5729 13.2656 14.6562C12.8594 14.6771 12.5104 14.6927 12.2188 14.7031C11.9271 14.7031 11.6875 14.7083 11.5 14.7188C11.2812 14.7292 11.0938 14.7396 10.9375 14.75C10.7812 14.75 10.5938 14.7604 10.375 14.7812C10.1875 14.8021 9.94271 14.8229 9.64062 14.8438C9.34896 14.8646 9.00521 14.8854 8.60938 14.9062C8.81771 14.7604 8.98438 14.6302 9.10938 14.5156C9.24479 14.3906 9.34896 14.2865 9.42188 14.2031C9.50521 14.099 9.5625 14.0052 9.59375 13.9219C9.61458 13.8281 9.63021 13.6875 9.64062 13.5C9.65104 13.3333 9.65104 13.1146 9.64062 12.8438C9.63021 12.5625 9.60417 12.1979 9.5625 11.75L5.45312 12.1719C5.34896 12.349 5.27083 12.5052 5.21875 12.6406C5.16667 12.7656 5.13021 12.875 5.10938 12.9688C5.07812 13.0833 5.06771 13.1771 5.07812 13.25C5.09896 13.3333 5.13542 13.4323 5.1875 13.5469C5.23958 13.651 5.3125 13.776 5.40625 13.9219C5.51042 14.0573 5.66146 14.2188 5.85938 14.4062C5.59896 14.3958 5.33333 14.3906 5.0625 14.3906C4.79167 14.3906 4.54167 14.3958 4.3125 14.4062C4.04167 14.4167 3.77604 14.4271 3.51562 14.4375C3.25521 14.4479 2.95833 14.4635 2.625 14.4844C2.34375 14.5052 2.01562 14.5312 1.64062 14.5625C1.25521 14.5833 0.84375 14.6146 0.40625 14.6562C0.677083 14.5312 0.90625 14.4062 1.09375 14.2812C1.28125 14.1458 1.4375 14.0208 1.5625 13.9062C1.70833 13.7812 1.83333 13.6615 1.9375 13.5469C2.01042 13.4427 2.15625 13.2031 2.375 12.8281C2.59375 12.4427 2.83854 11.9896 3.10938 11.4688C3.39062 10.9479 3.68229 10.3906 3.98438 9.79688C4.29688 9.20312 4.57812 8.64583 4.82812 8.125C5.07812 7.59375 5.28125 7.13542 5.4375 6.75C5.59375 6.36458 5.67188 6.11458 5.67188 6C5.65104 5.86458 5.59896 5.71354 5.51562 5.54688C5.44271 5.40104 5.32812 5.23438 5.17188 5.04688C5.02604 4.85938 4.8125 4.65104 4.53125 4.42188ZM9.375 10.5938C9.3125 10.2292 9.25521 9.91667 9.20312 9.65625C9.15104 9.38542 9.10938 9.16146 9.07812 8.98438C9.03646 8.77604 9.00521 8.59375 8.98438 8.4375C8.95312 8.29167 8.91667 8.10417 8.875 7.875C8.83333 7.67708 8.78125 7.43229 8.71875 7.14062C8.66667 6.83854 8.59896 6.47917 8.51562 6.0625C7.92188 7.25 7.45833 8.17188 7.125 8.82812C6.80208 9.47396 6.56771 9.94792 6.42188 10.25C6.24479 10.6042 6.14583 10.8125 6.125 10.875L9.375 10.5938ZM14.9844 4.42188C15.5052 4.45312 15.9427 4.47917 16.2969 4.5C16.6615 4.51042 16.9635 4.52083 17.2031 4.53125C17.474 4.54167 17.7031 4.54167 17.8906 4.53125C18.0781 4.52083 18.3333 4.49479 18.6562 4.45312C18.9271 4.42188 19.2865 4.375 19.7344 4.3125C20.1927 4.23958 20.7604 4.14583 21.4375 4.03125C21.1979 4.27083 21.0104 4.48958 20.875 4.6875C20.75 4.875 20.651 5.03646 20.5781 5.17188C20.4948 5.33854 20.4375 5.47917 20.4062 5.59375C20.3854 5.69792 20.4062 5.95833 20.4688 6.375C20.5312 6.79167 20.6198 7.28646 20.7344 7.85938C20.849 8.42188 20.974 9.02604 21.1094 9.67188C21.2448 10.3073 21.3802 10.9062 21.5156 11.4688C21.651 12.0208 21.7708 12.4948 21.875 12.8906C21.9896 13.276 22.0729 13.5052 22.125 13.5781C22.2812 13.7969 22.3802 13.9427 22.4219 14.0156C22.4635 14.0781 22.5365 14.1354 22.6406 14.1875C22.6823 14.2083 22.75 14.2396 22.8438 14.2812C22.9271 14.3229 23.0365 14.375 23.1719 14.4375C23.3177 14.5 23.5 14.5729 23.7188 14.6562C23.3125 14.6771 22.9635 14.6927 22.6719 14.7031C22.3802 14.7031 22.1406 14.7083 21.9531 14.7188C21.7344 14.7292 21.5469 14.7396 21.3906 14.75C21.2344 14.75 21.0469 14.7604 20.8281 14.7812C20.6406 14.8021 20.3958 14.8229 20.0938 14.8438C19.8021 14.8646 19.4583 14.8854 19.0625 14.9062C19.2708 14.7604 19.4375 14.6302 19.5625 14.5156C19.6979 14.3906 19.8021 14.2865 19.875 14.2031C19.9583 14.099 20.0156 14.0052 20.0469 13.9219C20.0677 13.8281 20.0833 13.6875 20.0938 13.5C20.1042 13.3333 20.1042 13.1146 20.0938 12.8438C20.0833 12.5625 20.0573 12.1979 20.0156 11.75L15.9062 12.1719C15.8021 12.349 15.724 12.5052 15.6719 12.6406C15.6198 12.7656 15.5833 12.875 15.5625 12.9688C15.5312 13.0833 15.5208 13.1771 15.5312 13.25C15.5521 13.3333 15.5885 13.4323 15.6406 13.5469C15.6927 13.651 15.7656 13.776 15.8594 13.9219C15.9635 14.0573 16.1146 14.2188 16.3125 14.4062C16.0521 14.3958 15.7865 14.3906 15.5156 14.3906C15.2448 14.3906 14.9948 14.3958 14.7656 14.4062C14.4948 14.4167 14.2292 14.4271 13.9688 14.4375C13.7083 14.4479 13.4115 14.4635 13.0781 14.4844C12.7969 14.5052 12.4688 14.5312 12.0938 14.5625C11.7083 14.5833 11.2969 14.6146 10.8594 14.6562C11.1302 14.5312 11.3594 14.4062 11.5469 14.2812C11.7344 14.1458 11.8906 14.0208 12.0156 13.9062C12.1615 13.7812 12.2865 13.6615 12.3906 13.5469C12.4635 13.4427 12.6094 13.2031 12.8281 12.8281C13.0469 12.4427 13.2917 11.9896 13.5625 11.4688C13.8438 10.9479 14.1354 10.3906 14.4375 9.79688C14.75 9.20312 15.0312 8.64583 15.2812 8.125C15.5312 7.59375 15.7344 7.13542 15.8906 6.75C16.0469 6.36458 16.125 6.11458 16.125 6C16.1042 5.86458 16.0521 5.71354 15.9688 5.54688C15.8958 5.40104 15.7812 5.23438 15.625 5.04688C15.4792 4.85938 15.2656 4.65104 14.9844 4.42188ZM19.8281 10.5938C19.7656 10.2292 19.7083 9.91667 19.6562 9.65625C19.6042 9.38542 19.5625 9.16146 19.5312 8.98438C19.4896 8.77604 19.4583 8.59375 19.4375 8.4375C19.4062 8.29167 19.3698 8.10417 19.3281 7.875C19.2865 7.67708 19.2344 7.43229 19.1719 7.14062C19.1198 6.83854 19.0521 6.47917 18.9688 6.0625C18.375 7.25 17.9115 8.17188 17.5781 8.82812C17.2552 9.47396 17.0208 9.94792 16.875 10.25C16.6979 10.6042 16.599 10.8125 16.5781 10.875L19.8281 10.5938ZM22.3438 3.59375C22.6771 3.64583 22.9792 3.69271 23.25 3.73438C23.5208 3.76562 23.7552 3.79167 23.9531 3.8125C24.1823 3.84375 24.3854 3.86979 24.5625 3.89062C24.7812 3.92188 25.1094 3.88542 25.5469 3.78125C25.9844 3.66667 26.4635 3.5625 26.9844 3.46875C27.5156 3.36458 28.0573 3.30729 28.6094 3.29688C29.1615 3.27604 29.6667 3.375 30.125 3.59375C30.5833 3.8125 30.9583 4.03125 31.25 4.25C31.5417 4.46875 31.7708 4.70312 31.9375 4.95312C32.1146 5.19271 32.2396 5.44792 32.3125 5.71875C32.3854 5.98958 32.4271 6.28646 32.4375 6.60938C32.4271 7.08854 32.3125 7.55208 32.0938 8C32 8.1875 31.875 8.38542 31.7188 8.59375C31.5729 8.79167 31.3906 8.98438 31.1719 9.17188C30.9531 9.35938 30.6927 9.53646 30.3906 9.70312C30.099 9.86979 29.7552 10.0156 29.3594 10.1406C29.7448 10.2552 30.0625 10.3906 30.3125 10.5469C30.5729 10.7031 30.7812 10.849 30.9375 10.9844C31.125 11.151 31.2656 11.3125 31.3594 11.4688C31.474 11.6875 31.5521 11.875 31.5938 12.0312C31.6354 12.1875 31.6615 12.3385 31.6719 12.4844C31.6927 12.6198 31.7188 12.7604 31.75 12.9062C31.7812 13.0521 31.849 13.2188 31.9531 13.4062C32.0365 13.5521 32.1354 13.7031 32.25 13.8594C32.3542 13.9948 32.474 14.1406 32.6094 14.2969C32.7552 14.4531 32.9323 14.6042 33.1406 14.75C32.849 14.7604 32.5781 14.7656 32.3281 14.7656C32.0885 14.7656 31.8802 14.7656 31.7031 14.7656C31.4948 14.7656 31.2969 14.7604 31.1094 14.75C30.9219 14.7396 30.6875 14.7344 30.4062 14.7344C30.1667 14.7344 29.8594 14.7344 29.4844 14.7344C29.1198 14.7344 28.6771 14.7396 28.1562 14.75C28.3854 14.5729 28.5729 14.3958 28.7188 14.2188C28.8646 14.0417 28.9792 13.8802 29.0625 13.7344C29.1562 13.5677 29.224 13.4062 29.2656 13.25C29.3177 12.9688 29.3229 12.6771 29.2812 12.375C29.25 12.1146 29.1667 11.8281 29.0312 11.5156C28.8958 11.1927 28.6771 10.8698 28.375 10.5469C28.0729 10.599 27.8177 10.6406 27.6094 10.6719C27.4115 10.6927 27.2396 10.7135 27.0938 10.7344C26.9271 10.7552 26.7917 10.7708 26.6875 10.7812C26.5938 10.7917 26.4896 10.8021 26.375 10.8125C26.2812 10.8229 26.1771 10.8385 26.0625 10.8594C25.9583 10.8698 25.8594 10.8854 25.7656 10.9062C25.7448 11.3542 25.7448 11.7448 25.7656 12.0781C25.7865 12.401 25.8125 12.6719 25.8438 12.8906C25.8854 13.151 25.9323 13.375 25.9844 13.5625C26.0365 13.75 26.1094 13.9323 26.2031 14.1094C26.276 14.2552 26.3698 14.4115 26.4844 14.5781C26.599 14.7344 26.7292 14.8646 26.875 14.9688C26.6042 14.9688 26.3438 14.9688 26.0938 14.9688C25.8542 14.9688 25.6354 14.9635 25.4375 14.9531C25.2083 14.9531 24.9896 14.9479 24.7812 14.9375C24.5729 14.9271 24.3385 14.9219 24.0781 14.9219C23.8594 14.9219 23.599 14.9219 23.2969 14.9219C23.0052 14.9219 22.6875 14.9271 22.3438 14.9375C22.6146 14.6562 22.8281 14.4167 22.9844 14.2188C23.1406 14.0208 23.2604 13.8542 23.3438 13.7188C23.4375 13.5729 23.4948 13.4479 23.5156 13.3438C23.5365 13.1771 23.5521 12.8802 23.5625 12.4531C23.5833 12.0156 23.599 11.5156 23.6094 10.9531C23.6198 10.3906 23.625 9.80208 23.625 9.1875C23.625 8.57292 23.6198 8 23.6094 7.46875C23.599 6.92708 23.5885 6.46354 23.5781 6.07812C23.5677 5.69271 23.5573 5.44792 23.5469 5.34375C23.5156 5.15625 23.4479 4.96875 23.3438 4.78125C23.2604 4.61458 23.1406 4.42708 22.9844 4.21875C22.8281 4.01042 22.6146 3.80208 22.3438 3.59375ZM28.25 9.09375C28.3542 9.03125 28.4427 8.96875 28.5156 8.90625C28.5885 8.84375 28.651 8.74479 28.7031 8.60938C28.7552 8.46354 28.7969 8.26042 28.8281 8C28.8698 7.73958 28.9167 7.38542 28.9688 6.9375C29.0104 6.48958 28.9792 6.11979 28.875 5.82812C28.7812 5.53646 28.651 5.30729 28.4844 5.14062C28.3281 4.96354 28.151 4.84375 27.9531 4.78125C27.7656 4.70833 27.599 4.67188 27.4531 4.67188C27.1615 4.67188 26.875 4.76042 26.5938 4.9375C26.3125 5.11458 26.099 5.35417 25.9531 5.65625C25.901 5.79167 25.8542 6.01562 25.8125 6.32812C25.7812 6.59896 25.7604 6.97396 25.75 7.45312C25.7396 7.93229 25.7552 8.5625 25.7969 9.34375C26.1927 9.40625 26.5417 9.43229 26.8438 9.42188C27.1458 9.40104 27.401 9.36458 27.6094 9.3125C27.8594 9.26042 28.0729 9.1875 28.25 9.09375ZM38.6875 3.21875C39.25 3.23958 39.8177 3.34375 40.3906 3.53125C40.974 3.70833 41.5104 4 42 4.40625C42.4896 4.80208 42.9062 5.31771 43.25 5.95312C43.5938 6.57812 43.8073 7.34375 43.8906 8.25C43.9635 8.98958 43.8698 9.72396 43.6094 10.4531C43.3594 11.1719 43.0104 11.8333 42.5625 12.4375C42.1146 13.0417 41.599 13.5573 41.0156 13.9844C40.4323 14.401 39.849 14.6771 39.2656 14.8125C38.9115 14.8958 38.5208 14.9062 38.0938 14.8438C37.6771 14.7708 37.25 14.6406 36.8125 14.4531C36.3854 14.2552 35.9635 14.0052 35.5469 13.7031C35.1406 13.401 34.7708 13.0573 34.4375 12.6719C34.1042 12.276 33.8229 11.849 33.5938 11.3906C33.375 10.9323 33.2396 10.4531 33.1875 9.95312C33.1354 9.53646 33.1302 9.07812 33.1719 8.57812C33.224 8.06771 33.3229 7.5625 33.4688 7.0625C33.625 6.55208 33.8385 6.0625 34.1094 5.59375C34.3906 5.11458 34.7448 4.69792 35.1719 4.34375C35.599 3.97917 36.099 3.69792 36.6719 3.5C37.2552 3.29167 37.9271 3.19792 38.6875 3.21875ZM35.8906 9.54688C35.7448 10.6615 35.849 11.5573 36.2031 12.2344C36.5677 12.9115 37.1146 13.3229 37.8438 13.4688C38.1979 13.5417 38.5365 13.4688 38.8594 13.25C39.1927 13.0208 39.4948 12.6927 39.7656 12.2656C40.0365 11.8385 40.2708 11.3385 40.4688 10.7656C40.6667 10.1927 40.8125 9.59375 40.9062 8.96875C41 8.34375 41.0052 7.78125 40.9219 7.28125C40.849 6.77083 40.7188 6.33854 40.5312 5.98438C40.3438 5.61979 40.1146 5.33854 39.8438 5.14062C39.5833 4.94271 39.3125 4.83333 39.0312 4.8125C38.5417 4.78125 38.1146 4.91146 37.75 5.20312C37.3854 5.48438 37.0781 5.85417 36.8281 6.3125C36.5781 6.77083 36.375 7.28646 36.2188 7.85938C36.0729 8.43229 35.9635 8.99479 35.8906 9.54688ZM50.3438 3.71875C51.0104 3.70833 51.5573 3.82812 51.9844 4.07812C52.4219 4.32812 52.776 4.625 53.0469 4.96875C53.3177 5.3125 53.526 5.66146 53.6719 6.01562C53.8177 6.35938 53.9323 6.63021 54.0156 6.82812C54.0365 6.88021 54.0781 6.94792 54.1406 7.03125C54.1927 7.10417 54.2656 7.19271 54.3594 7.29688C54.4635 7.39062 54.5938 7.5 54.75 7.625C54.4271 7.63542 54.1406 7.64583 53.8906 7.65625C53.6406 7.65625 53.4271 7.66146 53.25 7.67188C53.0521 7.68229 52.875 7.69271 52.7188 7.70312C52.5625 7.71354 52.3698 7.72917 52.1406 7.75C51.9323 7.77083 51.6771 7.79167 51.375 7.8125C51.0729 7.83333 50.7031 7.86458 50.2656 7.90625C50.526 7.59375 50.7292 7.31771 50.875 7.07812C51.0312 6.82812 51.1458 6.60938 51.2188 6.42188C51.3021 6.22396 51.349 6.05208 51.3594 5.90625C51.3802 5.76042 51.375 5.63542 51.3438 5.53125C51.2812 5.29167 51.1198 5.11979 50.8594 5.01562C50.1094 4.80729 49.4531 4.97396 48.8906 5.51562C48.3385 6.04688 47.9427 6.92188 47.7031 8.14062C47.5885 8.74479 47.4792 9.375 47.375 10.0312C47.2812 10.6771 47.2448 11.2708 47.2656 11.8125C47.2865 12.3438 47.3906 12.776 47.5781 13.1094C47.7656 13.4427 48.0885 13.599 48.5469 13.5781C48.9948 13.5573 49.375 13.4844 49.6875 13.3594C50 13.224 50.25 13.0677 50.4375 12.8906C50.625 12.7031 50.7552 12.5052 50.8281 12.2969C50.9115 12.0781 50.9427 11.875 50.9219 11.6875C50.8802 11.5417 50.7708 11.3854 50.5938 11.2188C50.4375 11.0729 50.2031 10.9115 49.8906 10.7344C49.5781 10.5469 49.1302 10.3542 48.5469 10.1562C49.099 10.125 49.5521 10.1042 49.9062 10.0938C50.2708 10.0729 50.5573 10.0521 50.7656 10.0312C51.0156 10.0104 51.2083 9.99479 51.3438 9.98438C51.4688 9.97396 51.651 9.96354 51.8906 9.95312C52.099 9.94271 52.3646 9.9375 52.6875 9.9375C53.0208 9.9375 53.4375 9.93229 53.9375 9.92188C53.75 10.1094 53.6042 10.2812 53.5 10.4375C53.4479 10.5208 53.401 10.5938 53.3594 10.6562C53.3177 10.7604 53.3021 10.974 53.3125 11.2969C53.3125 11.5677 53.3333 11.9688 53.375 12.5C53.4167 13.0208 53.4948 13.7344 53.6094 14.6406L51.5312 14.9219L51.625 12.8125C51.3854 13.3854 51.0833 13.8125 50.7188 14.0938C50.3646 14.375 50.026 14.5729 49.7031 14.6875C49.3177 14.8229 48.9167 14.8854 48.5 14.875C47.9583 14.8229 47.4167 14.6979 46.875 14.5C46.3333 14.3021 45.8542 14 45.4375 13.5938C45.0208 13.1771 44.6979 12.6406 44.4688 11.9844C44.25 11.3281 44.1823 10.5156 44.2656 9.54688C44.3594 8.57812 44.5885 7.73438 44.9531 7.01562C45.3281 6.28646 45.7917 5.68229 46.3438 5.20312C46.8958 4.72396 47.5156 4.36458 48.2031 4.125C48.901 3.875 49.6146 3.73958 50.3438 3.71875ZM72.4219 4.42188C72.9427 4.45312 73.3802 4.47917 73.7344 4.5C74.099 4.51042 74.401 4.52083 74.6406 4.53125C74.9115 4.54167 75.1406 4.54167 75.3281 4.53125C75.5156 4.52083 75.7708 4.49479 76.0938 4.45312C76.3646 4.42188 76.724 4.375 77.1719 4.3125C77.6302 4.23958 78.1979 4.14583 78.875 4.03125C78.6354 4.27083 78.4479 4.48958 78.3125 4.6875C78.1875 4.875 78.0885 5.03646 78.0156 5.17188C77.9323 5.33854 77.875 5.47917 77.8438 5.59375C77.8229 5.69792 77.8438 5.95833 77.9062 6.375C77.9688 6.79167 78.0573 7.28646 78.1719 7.85938C78.2865 8.42188 78.4115 9.02604 78.5469 9.67188C78.6823 10.3073 78.8177 10.9062 78.9531 11.4688C79.0885 12.0208 79.2083 12.4948 79.3125 12.8906C79.4271 13.276 79.5104 13.5052 79.5625 13.5781C79.7188 13.7969 79.8177 13.9427 79.8594 14.0156C79.901 14.0781 79.974 14.1354 80.0781 14.1875C80.1198 14.2083 80.1875 14.2396 80.2812 14.2812C80.3646 14.3229 80.474 14.375 80.6094 14.4375C80.7552 14.5 80.9375 14.5729 81.1562 14.6562C80.75 14.6771 80.401 14.6927 80.1094 14.7031C79.8177 14.7031 79.5781 14.7083 79.3906 14.7188C79.1719 14.7292 78.9844 14.7396 78.8281 14.75C78.6719 14.75 78.4844 14.7604 78.2656 14.7812C78.0781 14.8021 77.8333 14.8229 77.5312 14.8438C77.2396 14.8646 76.8958 14.8854 76.5 14.9062C76.7083 14.7604 76.875 14.6302 77 14.5156C77.1354 14.3906 77.2396 14.2865 77.3125 14.2031C77.3958 14.099 77.4531 14.0052 77.4844 13.9219C77.5052 13.8281 77.5208 13.6875 77.5312 13.5C77.5417 13.3333 77.5417 13.1146 77.5312 12.8438C77.5208 12.5625 77.4948 12.1979 77.4531 11.75L73.3438 12.1719C73.2396 12.349 73.1615 12.5052 73.1094 12.6406C73.0573 12.7656 73.0208 12.875 73 12.9688C72.9688 13.0833 72.9583 13.1771 72.9688 13.25C72.9896 13.3333 73.026 13.4323 73.0781 13.5469C73.1302 13.651 73.2031 13.776 73.2969 13.9219C73.401 14.0573 73.5521 14.2188 73.75 14.4062C73.4896 14.3958 73.224 14.3906 72.9531 14.3906C72.6823 14.3906 72.4323 14.3958 72.2031 14.4062C71.9323 14.4167 71.6667 14.4271 71.4062 14.4375C71.1458 14.4479 70.849 14.4635 70.5156 14.4844C70.2344 14.5052 69.9062 14.5312 69.5312 14.5625C69.1458 14.5833 68.7344 14.6146 68.2969 14.6562C68.5677 14.5312 68.7969 14.4062 68.9844 14.2812C69.1719 14.1458 69.3281 14.0208 69.4531 13.9062C69.599 13.7812 69.724 13.6615 69.8281 13.5469C69.901 13.4427 70.0469 13.2031 70.2656 12.8281C70.4844 12.4427 70.7292 11.9896 71 11.4688C71.2812 10.9479 71.5729 10.3906 71.875 9.79688C72.1875 9.20312 72.4688 8.64583 72.7188 8.125C72.9688 7.59375 73.1719 7.13542 73.3281 6.75C73.4844 6.36458 73.5625 6.11458 73.5625 6C73.5417 5.86458 73.4896 5.71354 73.4062 5.54688C73.3333 5.40104 73.2188 5.23438 73.0625 5.04688C72.9167 4.85938 72.7031 4.65104 72.4219 4.42188ZM77.2656 10.5938C77.2031 10.2292 77.1458 9.91667 77.0938 9.65625C77.0417 9.38542 77 9.16146 76.9688 8.98438C76.9271 8.77604 76.8958 8.59375 76.875 8.4375C76.8438 8.29167 76.8073 8.10417 76.7656 7.875C76.724 7.67708 76.6719 7.43229 76.6094 7.14062C76.5573 6.83854 76.4896 6.47917 76.4062 6.0625C75.8125 7.25 75.349 8.17188 75.0156 8.82812C74.6927 9.47396 74.4583 9.94792 74.3125 10.25C74.1354 10.6042 74.0365 10.8125 74.0156 10.875L77.2656 10.5938ZM80.2656 3.79688C80.599 3.80729 80.8906 3.8125 81.1406 3.8125C81.3906 3.80208 81.5938 3.79688 81.75 3.79688H82.2031C82.3177 3.78646 82.4583 3.78125 82.625 3.78125C82.7708 3.78125 82.9479 3.78125 83.1562 3.78125C83.3646 3.78125 83.6042 3.78646 83.875 3.79688C83.9583 4.08854 84.0521 4.375 84.1562 4.65625C84.2708 4.92708 84.3698 5.17188 84.4531 5.39062C84.5573 5.65104 84.6615 5.89583 84.7656 6.125C84.8698 6.35417 84.9948 6.63021 85.1406 6.95312C85.2656 7.22396 85.4167 7.55729 85.5938 7.95312C85.7708 8.33854 85.9792 8.78125 86.2188 9.28125C86.3333 8.95833 86.4375 8.66146 86.5312 8.39062C86.6354 8.11979 86.724 7.88542 86.7969 7.6875C86.8802 7.45833 86.9479 7.25 87 7.0625C87.0521 6.875 87.1094 6.64583 87.1719 6.375C87.224 6.14583 87.2812 5.86979 87.3438 5.54688C87.4167 5.22396 87.4896 4.84896 87.5625 4.42188C87.8646 4.42188 88.1354 4.42188 88.375 4.42188C88.6146 4.42188 88.8229 4.41667 89 4.40625C89.1979 4.40625 89.375 4.40104 89.5312 4.39062C89.6979 4.39062 89.9219 4.38021 90.2031 4.35938C90.4427 4.33854 90.7604 4.32292 91.1562 4.3125C91.5625 4.29167 92.0625 4.26562 92.6562 4.23438C92.4375 4.39062 92.2604 4.54688 92.125 4.70312C92 4.84896 91.901 4.97917 91.8281 5.09375C91.7448 5.22917 91.6927 5.35938 91.6719 5.48438C91.651 5.58854 91.6302 5.82812 91.6094 6.20312C91.599 6.57812 91.5833 7.02604 91.5625 7.54688C91.5521 8.05729 91.5417 8.60417 91.5312 9.1875C91.5312 9.77083 91.5365 10.3229 91.5469 10.8438C91.5573 11.3646 91.5729 11.8177 91.5938 12.2031C91.625 12.5781 91.6667 12.8177 91.7188 12.9219C91.7917 13.0469 91.8906 13.1927 92.0156 13.3594C92.1302 13.5052 92.276 13.6719 92.4531 13.8594C92.6406 14.0469 92.8854 14.2552 93.1875 14.4844C92.7083 14.5052 92.3073 14.5208 91.9844 14.5312C91.6719 14.5417 91.4115 14.5521 91.2031 14.5625C90.9635 14.5729 90.7708 14.5781 90.625 14.5781C90.4688 14.5781 90.2552 14.5833 89.9844 14.5938C89.7448 14.6042 89.4271 14.6198 89.0312 14.6406C88.6354 14.651 88.125 14.6719 87.5 14.7031C87.6458 14.5365 87.7812 14.3698 87.9062 14.2031C88.0312 14.0365 88.1354 13.8854 88.2188 13.75C88.3229 13.5938 88.4115 13.4427 88.4844 13.2969C88.5573 13.099 88.6146 12.7396 88.6562 12.2188C88.6979 11.7708 88.7292 11.1302 88.75 10.2969C88.7708 9.45312 88.7708 8.32292 88.75 6.90625C88.5521 7.22917 88.375 7.55208 88.2188 7.875C88.0729 8.1875 87.9427 8.47396 87.8281 8.73438C87.7031 9.03646 87.5885 9.32812 87.4844 9.60938C87.3802 9.90104 87.2708 10.224 87.1562 10.5781C87.0521 10.8802 86.9271 11.2396 86.7812 11.6562C86.6458 12.0729 86.4896 12.5312 86.3125 13.0312L85.7188 13.0625C85.6354 12.6458 85.5521 12.2708 85.4688 11.9375C85.3854 11.5938 85.3021 11.3021 85.2188 11.0625C85.125 10.7812 85.0312 10.5312 84.9375 10.3125C84.8333 10.0938 84.7188 9.84896 84.5938 9.57812C84.4792 9.34896 84.3385 9.07812 84.1719 8.76562C84.0156 8.45312 83.8333 8.10417 83.625 7.71875C83.5208 8.78125 83.4583 9.64583 83.4375 10.3125C83.4167 10.9688 83.4167 11.4792 83.4375 11.8438C83.4583 12.2812 83.4896 12.599 83.5312 12.7969C83.5938 12.974 83.6927 13.1719 83.8281 13.3906C83.9427 13.5781 84.099 13.8021 84.2969 14.0625C84.5052 14.3125 84.7708 14.5938 85.0938 14.9062C84.8646 14.9062 84.625 14.9062 84.375 14.9062C84.125 14.9062 83.8958 14.9115 83.6875 14.9219C83.4375 14.9323 83.1927 14.9375 82.9531 14.9375C82.7031 14.9479 82.4115 14.9635 82.0781 14.9844C81.7865 15.0052 81.4375 15.026 81.0312 15.0469C80.625 15.0677 80.1562 15.1042 79.625 15.1562C79.8542 15.0104 80.0417 14.8698 80.1875 14.7344C80.3333 14.5885 80.4479 14.4583 80.5312 14.3438C80.6354 14.2083 80.7135 14.0729 80.7656 13.9375C80.7969 13.8542 80.8229 13.6719 80.8438 13.3906C80.875 13.1094 80.901 12.7656 80.9219 12.3594C80.9531 11.9531 80.974 11.5 80.9844 11C81.0052 10.5 81.0208 9.99479 81.0312 9.48438C81.0521 8.96354 81.0677 8.45833 81.0781 7.96875C81.0885 7.46875 81.0938 7.02083 81.0938 6.625C81.1042 6.21875 81.1094 5.88021 81.1094 5.60938C81.1094 5.33854 81.1094 5.16667 81.1094 5.09375C81.0781 4.9375 81.0312 4.78125 80.9688 4.625C80.9167 4.48958 80.8333 4.34896 80.7188 4.20312C80.6042 4.05729 80.4531 3.92188 80.2656 3.79688Z" fill="url(#paint0_linear_47_28)"/>
<path d="M62.0127 19.1094C61.6382 19.1642 60.8869 19.1643 60.502 19.1065H60.501C58.6363 18.8198 57.1816 17.5185 56.8682 15.8213V15.8203C56.8285 15.6017 56.8154 15.2342 56.8154 14.291C56.8154 13.7373 56.814 13.4316 56.8066 13.2647C56.8053 13.2336 56.8023 13.209 56.8008 13.1895C56.7777 13.1845 56.754 13.1798 56.7314 13.1738C56.6649 13.1562 56.5875 13.1311 56.5088 13.1035C56.3537 13.0491 56.1823 12.978 56.0654 12.9141H56.0645C55.5299 12.6267 55.1762 12.2466 54.9717 11.7266H54.9727C54.9077 11.5651 54.8689 11.3426 54.8555 11.1289C54.8421 10.915 54.8524 10.6893 54.8965 10.5225V10.5215C55.0207 10.0694 55.2135 9.75395 55.5654 9.43848C56.0948 8.96132 56.7514 8.74546 57.5195 8.78223V8.78321C58.159 8.81037 58.7145 9.0298 59.1572 9.42677L59.3408 9.60743C59.7089 10.0124 59.8903 10.474 59.8867 11.0195C59.8827 12.0542 59.1202 12.9156 58.0322 13.1631H58.0312L57.9111 13.1904L57.9258 14.3125C57.9341 14.9652 57.9418 15.3185 57.9648 15.5576C57.987 15.7879 58.0227 15.9082 58.0928 16.0957L58.0938 16.0967C58.2846 16.6141 58.6182 17.0613 59.084 17.417L59.292 17.5635C59.8624 17.9344 60.6017 18.1444 61.2949 18.1367L61.5889 18.1201C62.4246 18.0351 63.1108 17.7412 63.6543 17.2441C64.2228 16.722 64.5072 16.1745 64.583 15.4668C64.602 15.2916 64.6191 14.6094 64.6191 13.9482V12.8721L64.4805 12.8447H64.4814C63.8285 12.7266 63.182 12.4128 62.5713 11.9268L62.3115 11.707L62.1133 11.5234C62.0592 11.4694 62.0165 11.421 61.9834 11.375C61.9091 11.2716 61.8851 11.1804 61.875 11.0713L61.8672 11.0303C61.8529 10.9846 61.8159 10.9202 61.7109 10.7861C61.1099 10.0247 60.6622 9.12786 60.4131 8.24805C60.1646 7.37032 60.1094 6.4972 60.3057 5.78712C60.4547 5.25065 60.8135 4.83802 61.3359 4.60059C61.6598 4.45374 61.9015 4.38072 62.4922 4.25098L62.4932 4.25001C62.7074 4.20369 62.8105 4.17986 62.8721 4.15723C62.8992 4.14727 62.9133 4.13963 62.9229 4.13282L62.9648 4.09278C63.0418 4.00992 63.1237 3.94614 63.2246 3.90528C63.3241 3.86501 63.4311 3.85157 63.5518 3.85157C63.8295 3.85157 64.0583 3.94895 64.2119 4.15137C64.2981 4.2651 64.3383 4.4116 64.3408 4.54884C64.3427 4.65131 64.3232 4.75983 64.2764 4.85548L64.2207 4.9463C64.0268 5.2006 63.678 5.31751 63.3721 5.24317L63.2432 5.19923L63.2412 5.19727L63.1592 5.15919L62.7607 5.24708C62.1314 5.3853 61.8333 5.4967 61.667 5.62794C61.5092 5.75482 61.3959 5.94676 61.3516 6.1963V6.19727C61.3279 6.32227 61.3164 6.55222 61.3193 6.79786C61.3222 7.04169 61.3391 7.28388 61.3652 7.43165C61.5408 8.37364 62.0337 9.44096 62.6387 10.1953V10.1963C62.6953 10.2658 62.7285 10.2993 62.7549 10.3193C62.7657 10.3275 62.7767 10.3338 62.79 10.3399L62.8457 10.3584C62.9871 10.3985 63.1289 10.5064 63.3828 10.7266L63.3848 10.7275C63.7612 11.061 64.1608 11.306 64.5 11.4209H64.501C64.9136 11.5614 65.3011 11.5797 65.6934 11.4727C66.0887 11.3647 66.4993 11.1269 66.9492 10.7402C67.2209 10.5044 67.3623 10.3971 67.5107 10.3604L67.5137 10.3594C67.5647 10.3479 67.5768 10.3412 67.5996 10.3203C67.6358 10.2871 67.6858 10.2265 67.79 10.0869L67.7891 10.0859C68.4801 9.14799 68.9403 8.0192 69.0176 7.09473C69.0335 6.89252 69.0327 6.66696 69.0166 6.4629C69.0003 6.25626 68.9692 6.0834 68.9326 5.98048L68.877 5.85548C68.8133 5.73921 68.7234 5.64795 68.582 5.56641C68.3838 5.45207 68.0845 5.35659 67.6143 5.25294H67.6152L67.1885 5.16114L67.1064 5.1963C66.9828 5.25213 66.8813 5.26524 66.7236 5.2588H66.7207C66.4392 5.24113 66.2236 5.11197 66.0811 4.86622L66.0469 4.80177C65.8996 4.47468 66.0679 4.09589 66.3994 3.93165L66.4004 3.93262C66.5113 3.87658 66.6544 3.85126 66.7832 3.84962C66.9093 3.84803 67.0509 3.86851 67.1553 3.92481V3.92384C67.1565 3.92446 67.158 3.92514 67.1592 3.92579V3.92677C67.2323 3.96546 67.3261 4.03823 67.3828 4.09473L67.3867 4.09864C67.4033 4.11653 67.4176 4.13071 67.4834 4.15333C67.5587 4.17916 67.6821 4.20943 67.9111 4.2627V4.26368C68.7978 4.46654 69.1578 4.6038 69.5215 4.9297V4.93067C69.741 5.12545 69.8937 5.33714 69.9922 5.6172C70.089 5.89268 70.131 6.22743 70.1445 6.66309V6.66407C70.1512 6.92087 70.1527 7.08081 70.1426 7.22559C70.1323 7.37226 70.1098 7.50047 70.0713 7.69337C69.8529 8.81071 69.3557 9.87189 68.6123 10.8262L68.6113 10.8272C68.4847 10.9882 68.4625 11.0539 68.46 11.084C68.4532 11.1798 68.4288 11.2657 68.3711 11.3574C68.3167 11.4439 68.2347 11.5312 68.123 11.6367C67.4495 12.2736 66.5015 12.7732 65.7451 12.8662L65.7197 12.8701V14.165C65.7197 15.2272 65.7062 15.6603 65.6699 15.8643V15.8652C65.3627 17.5296 63.8895 18.8171 62.0146 19.1094H62.0127ZM57.5654 12.2061C58.3474 12.1002 58.8669 11.4553 58.7559 10.8369V10.8359C58.6275 10.1062 57.7533 9.61244 56.9219 9.86134C56.3415 10.0331 55.9785 10.4948 55.9785 11.0039C55.9787 11.7237 56.7196 12.3222 57.5654 12.2061Z" fill="url(#paint1_linear_47_28)" stroke="#429E9D" stroke-width="0.3"/>
<path d="M56.3358 11.0034C56.3358 10.9018 56.3394 10.8454 56.3494 10.8003C56.3542 10.7788 56.3611 10.758 56.3709 10.7339L56.4119 10.6479C56.5543 10.3728 56.8172 10.1872 57.1727 10.1294H57.1736C57.2919 10.1098 57.3393 10.1032 57.3856 10.104C57.4321 10.1048 57.4817 10.1131 57.6033 10.1372C57.9347 10.2028 58.1831 10.383 58.3162 10.6391C58.5664 11.1197 58.2908 11.7014 57.6639 11.8667L57.6649 11.8677C57.1528 12.0009 56.6491 11.7895 56.4178 11.3725V11.3716C56.3735 11.2894 56.3558 11.2499 56.3465 11.2094C56.3368 11.1674 56.3331 11.1156 56.3348 11.0063H56.3358V11.0034Z" fill="url(#paint2_linear_47_28)" stroke="#429E9D" stroke-width="0.3"/>
<defs>
<linearGradient id="paint0_linear_47_28" x1="2" y1="9.5" x2="93" y2="9.5" gradientUnits="userSpaceOnUse">
<stop stop-color="#29D38C"/>
<stop offset="0.5" stop-color="#2A909C"/>
<stop offset="1" stop-color="#4591EA"/>
</linearGradient>
<linearGradient id="paint1_linear_47_28" x1="70" y1="11.5" x2="55" y2="11.5" gradientUnits="userSpaceOnUse">
<stop stop-color="#29D38C"/>
<stop offset="0.5" stop-color="#2A909C"/>
<stop offset="1" stop-color="#4591EA"/>
</linearGradient>
<linearGradient id="paint2_linear_47_28" x1="58.5594" y1="11.0049" x2="56.1848" y2="11.0049" gradientUnits="userSpaceOnUse">
<stop stop-color="#29D38C"/>
<stop offset="0.5" stop-color="#2A909C"/>
<stop offset="1" stop-color="#4591EA"/>
</linearGradient>
</defs>
</svg>
